<?xml version="1.0" encoding="UTF-8" standalone="no"?>
<!DOCTYPE svg PUBLIC "-//W3C//DTD SVG 1.1//EN"
 "http://www.w3.org/Graphics/SVG/1.1/DTD/svg11.dtd">
<!-- Generated by graphviz version 12.1.1 (20240910.0053)
 -->
<!-- Title: INFRA Pages: 1 -->
<svg width="496pt" height="404pt"
 viewBox="0.00 0.00 495.66 404.00" xmlns="http://www.w3.org/2000/svg" xmlns:xlink="http://www.w3.org/1999/xlink">
<g id="graph0" class="graph" transform="scale(1 1) rotate(0) translate(4 400)">
<title>INFRA</title>
<polygon fill="white" stroke="none" points="-4,4 -4,-400 491.66,-400 491.66,4 -4,4"/>
<!-- eks&#45;vpc -->
<g id="node1" class="node">
<title>eks&#45;vpc</title>
<path fill="#e6e6e6" stroke="black" stroke-width="2" d="M116.79,-180C116.79,-180 12,-180 12,-180 6,-180 0,-174 0,-168 0,-168 0,-120 0,-120 0,-114 6,-108 12,-108 12,-108 116.79,-108 116.79,-108 122.79,-108 128.79,-114 128.79,-120 128.79,-120 128.79,-168 128.79,-168 128.79,-174 122.79,-180 116.79,-180"/>
<text text-anchor="middle" x="64.4" y="-148.2" font-family="Arial" font-size="14.00">eks&#45;vpc</text>
<text text-anchor="middle" x="64.4" y="-131.4" font-family="Arial" font-size="14.00">(AWS::EC2::VPC)</text>
</g>
<!-- eks&#45;helm&#45;cluster -->
<g id="node2" class="node">
<title>eks&#45;helm&#45;cluster</title>
<path fill="#b7e0ff" stroke="black" stroke-width="2" d="M133.96,-288C133.96,-288 12.83,-288 12.83,-288 6.83,-288 0.83,-282 0.83,-276 0.83,-276 0.83,-228 0.83,-228 0.83,-222 6.83,-216 12.83,-216 12.83,-216 133.96,-216 133.96,-216 139.96,-216 145.96,-222 145.96,-228 145.96,-228 145.96,-276 145.96,-276 145.96,-282 139.96,-288 133.96,-288"/>
<text text-anchor="middle" x="73.4" y="-256.2" font-family="Arial" font-size="14.00">eks&#45;helm&#45;cluster</text>
<text text-anchor="middle" x="73.4" y="-239.4" font-family="Arial" font-size="14.00">(AWS::EKS::Cluster)</text>
</g>
<!-- eks&#45;helm&#45;cluster&#45;&gt;eks&#45;vpc -->
<g id="edge1" class="edge">
<title>eks&#45;helm&#45;cluster&#45;&gt;eks&#45;vpc</title>
<path fill="none" stroke="black" d="M70.4,-215.7C69.74,-207.93 69.03,-199.57 68.34,-191.43"/>
<polygon fill="black" stroke="black" points="71.84,-191.32 67.51,-181.65 64.87,-191.91 71.84,-191.32"/>
</g>
<!-- eks&#45;helm -->
<g id="node3" class="node">
<title>eks&#45;helm</title>
<path fill="#e6e6e6" stroke="black" stroke-width="2" d="M365.63,-72C365.63,-72 221.16,-72 221.16,-72 215.16,-72 209.16,-66 209.16,-60 209.16,-60 209.16,-12 209.16,-12 209.16,-6 215.16,0 221.16,0 221.16,0 365.63,0 365.63,0 371.63,0 377.63,-6 377.63,-12 377.63,-12 377.63,-60 377.63,-60 377.63,-66 371.63,-72 365.63,-72"/>
<text text-anchor="middle" x="293.4" y="-40.2" font-family="Arial" font-size="14.00">eks&#45;helm</text>
<text text-anchor="middle" x="293.4" y="-23.4" font-family="Arial" font-size="14.00">(AWS::SSM::Parameter)</text>
</g>
<!-- eks&#45;helm&#45;lambda -->
<g id="node4" class="node">
<title>eks&#45;helm&#45;lambda</title>
<path fill="#b7e0ff" stroke="black" stroke-width="2" d="M311.93,-180C311.93,-180 158.87,-180 158.87,-180 152.87,-180 146.87,-174 146.87,-168 146.87,-168 146.87,-120 146.87,-120 146.87,-114 152.87,-108 158.87,-108 158.87,-108 311.93,-108 311.93,-108 317.93,-108 323.93,-114 323.93,-120 323.93,-120 323.93,-168 323.93,-168 323.93,-174 317.93,-180 311.93,-180"/>
<text text-anchor="middle" x="235.4" y="-148.2" font-family="Arial" font-size="14.00">eks&#45;helm&#45;lambda</text>
<text text-anchor="middle" x="235.4" y="-131.4" font-family="Arial" font-size="14.00">(AWS::Lambda::Function)</text>
</g>
<!-- eks&#45;helm&#45;lambda&#45;&gt;eks&#45;helm -->
<g id="edge2" class="edge">
<title>eks&#45;helm&#45;lambda&#45;&gt;eks&#45;helm</title>
<path fill="none" stroke="black" d="M254.71,-107.7C259.21,-99.48 264.06,-90.61 268.76,-82.03"/>
<polygon fill="black" stroke="black" points="271.71,-83.92 273.44,-73.47 265.57,-80.56 271.71,-83.92"/>
</g>
<!-- helm&#45;values&#45;cr -->
<g id="node5" class="node">
<title>helm&#45;values&#45;cr</title>
<path fill="#e6e6e6" stroke="black" stroke-width="2" d="M475.66,-288C475.66,-288 219.13,-288 219.13,-288 213.13,-288 207.13,-282 207.13,-276 207.13,-276 207.13,-228 207.13,-228 207.13,-222 213.13,-216 219.13,-216 219.13,-216 475.66,-216 475.66,-216 481.66,-216 487.66,-222 487.66,-228 487.66,-228 487.66,-276 487.66,-276 487.66,-282 481.66,-288 475.66,-288"/>
<text text-anchor="middle" x="347.4" y="-256.2" font-family="Arial" font-size="14.00">helm&#45;values&#45;cr</text>
<text text-anchor="middle" x="347.4" y="-239.4" font-family="Arial" font-size="14.00">(AWS::CloudFormation::CustomResource)</text>
</g>
<!-- helm&#45;values&#45;cr&#45;&gt;eks&#45;helm -->
<g id="edge4" class="edge">
<title>helm&#45;values&#45;cr&#45;&gt;eks&#45;helm</title>
<path fill="none" stroke="black" d="M347.96,-215.52C347.48,-186.08 344.57,-143.45 333.4,-108 330.65,-99.27 326.73,-90.42 322.41,-82.06"/>
<polygon fill="black" stroke="black" points="325.6,-80.59 317.73,-73.49 319.45,-83.94 325.6,-80.59"/>
</g>
<!-- helm&#45;values&#45;cr&#45;&gt;eks&#45;helm&#45;lambda -->
<g id="edge3" class="edge">
<title>helm&#45;values&#45;cr&#45;&gt;eks&#45;helm&#45;lambda</title>
<path fill="none" stroke="black" d="M310.1,-215.7C300.66,-206.76 290.41,-197.06 280.62,-187.8"/>
<polygon fill="black" stroke="black" points="283.3,-185.51 273.63,-181.18 278.48,-190.6 283.3,-185.51"/>
</g>
<!-- nginx&#45;ingess&#45;chart -->
<g id="node6" class="node">
<title>nginx&#45;ingess&#45;chart</title>
<path fill="#e6e6e6" stroke="black" stroke-width="2" d="M241.52,-396C241.52,-396 117.28,-396 117.28,-396 111.28,-396 105.28,-390 105.28,-384 105.28,-384 105.28,-336 105.28,-336 105.28,-330 111.28,-324 117.28,-324 117.28,-324 241.52,-324 241.52,-324 247.52,-324 253.52,-330 253.52,-336 253.52,-336 253.52,-384 253.52,-384 253.52,-390 247.52,-396 241.52,-396"/>
<text text-anchor="middle" x="179.4" y="-364.2" font-family="Arial" font-size="14.00">nginx&#45;ingess&#45;chart</text>
<text text-anchor="middle" x="179.4" y="-347.4" font-family="Arial" font-size="14.00">(Custom::HelmChart)</text>
</g>
<!-- nginx&#45;ingess&#45;chart&#45;&gt;eks&#45;helm&#45;cluster -->
<g id="edge5" class="edge">
<title>nginx&#45;ingess&#45;chart&#45;&gt;eks&#45;helm&#45;cluster</title>
<path fill="none" stroke="black" d="M144.1,-323.7C135.25,-314.85 125.66,-305.26 116.47,-296.08"/>
<polygon fill="black" stroke="black" points="119.16,-293.81 109.61,-289.21 114.21,-298.76 119.16,-293.81"/>
</g>
<!-- nginx&#45;ingess&#45;chart&#45;&gt;eks&#45;helm&#45;lambda -->
<g id="edge6" class="edge">
<title>nginx&#45;ingess&#45;chart&#45;&gt;eks&#45;helm&#45;lambda</title>
<path fill="none" stroke="black" d="M180.68,-323.59C182.56,-294.19 187.15,-251.58 198.4,-216 201.08,-207.52 204.73,-198.84 208.7,-190.6"/>
<polygon fill="black" stroke="black" points="211.77,-192.29 213.17,-181.78 205.53,-189.12 211.77,-192.29"/>
</g>
<!-- nginx&#45;ingess&#45;chart&#45;&gt;helm&#45;values&#45;cr -->
<g id="edge7" class="edge">
<title>nginx&#45;ingess&#45;chart&#45;&gt;helm&#45;values&#45;cr</title>
<path fill="none" stroke="black" d="M235.34,-323.7C250.28,-314.28 266.56,-304.01 281.96,-294.29"/>
<polygon fill="black" stroke="black" points="283.54,-297.43 290.13,-289.13 279.81,-291.51 283.54,-297.43"/>
</g>
</g>
</svg>
